<svg width="58" height="54" viewBox="0 0 58 54" fill="none" xmlns="http://www.w3.org/2000/svg">
<path fill-rule="evenodd" clip-rule="evenodd" d="M33.4336 0.632911C31.314 0.289607 29.1612 0.199346 27.0204 0.364025L26.365 0.414439C23.1916 0.658549 20.0853 1.45568 17.1864 2.76983C14.5559 3.96232 12.1313 5.56466 10.003 7.51707L9.92286 7.59057C7.64383 9.68125 5.7365 12.1439 4.28227 14.8734C3.33702 16.6475 2.59056 18.5206 2.05647 20.4586L1.17637 23.6521C1.00235 24.2836 0.914148 24.9356 0.914148 25.5906V27.8364C0.914148 28.5409 1.22199 29.2102 1.75687 29.6687C2.6606 30.4433 3.99416 30.4433 4.89789 29.6687L4.95728 29.6177C5.44552 29.1993 5.75408 28.609 5.81906 27.9693L6.2305 23.9182C6.3689 22.5554 6.74584 21.2276 7.3441 19.9953L8.27325 18.0816C9.433 15.6928 10.9938 13.5207 12.8879 11.6596L13.3602 11.1955C15.2216 9.36644 17.4247 7.92157 19.844 6.94319C22.2135 5.98493 24.7455 5.49233 27.3014 5.49233H29.2808C32.2563 5.49233 35.2035 6.06964 37.959 7.19227C39.9821 8.01646 41.8773 9.12464 43.5878 10.4834L44.164 10.9411C45.886 12.3091 47.4417 13.8742 48.7993 15.6045L48.873 15.6984H44.6531H42.5887C41.591 15.6984 40.667 16.2235 40.1564 17.0805L40.0386 17.2783C39.4897 18.1997 39.5871 19.368 40.281 20.1857C40.7577 20.7476 41.4573 21.0715 42.1941 21.0715H53.8385C54.815 21.0715 55.7443 20.651 56.3889 19.9175C56.9335 19.2978 57.2338 18.5011 57.2338 17.6762V6.16796C57.2338 5.27266 56.8249 4.42638 56.1234 3.87004L56.0214 3.78917C55.569 3.43034 55.0085 3.23506 54.431 3.23506C53.3721 3.23506 52.4224 3.88726 52.0423 4.87567L51.9381 5.1464C51.7737 5.57402 51.71 6.03379 51.7519 6.49001L52.3267 12.7354C50.9144 10.5266 49.1222 8.58441 47.0325 6.99918L46.4282 7.79587C48.4762 9.34953 50.225 11.2622 51.5896 13.4407L52.012 14.115C52.4372 14.7939 53.4877 14.4391 53.4143 13.6414L52.7477 6.39838C52.7198 6.09516 52.7622 5.78959 52.8715 5.50538L52.9756 5.23465C53.2072 4.63243 53.7858 4.23506 54.431 4.23506C54.7829 4.23506 55.1244 4.35404 55.4 4.57267L55.502 4.65354C55.9643 5.02019 56.2338 5.57792 56.2338 6.16796V17.6762C56.2338 18.2581 56.0219 18.8202 55.6378 19.2573C55.183 19.7748 54.5274 20.0715 53.8385 20.0715H42.1941C41.7509 20.0715 41.3302 19.8767 41.0435 19.5388C40.6262 19.0469 40.5676 18.3443 40.8977 17.7901L41.0155 17.5924C41.3458 17.038 41.9434 16.6984 42.5887 16.6984H44.6531H49.229C49.9187 16.6984 50.3052 15.9038 49.8795 15.3612L49.5861 14.9872C48.1802 13.1955 46.5692 11.5747 44.786 10.1581L44.2098 9.7004C42.425 8.28256 40.4473 7.1262 38.3363 6.26618C35.461 5.09474 32.3857 4.49233 29.2808 4.49233H27.3014C24.617 4.49233 21.9577 5.00969 19.4691 6.01613C16.9282 7.0437 14.6143 8.5612 12.6593 10.4822L12.187 10.9463C10.2114 12.8875 8.58336 15.1532 7.37367 17.6448L6.44452 19.5586C5.79506 20.8963 5.38587 22.3377 5.23561 23.8171L4.82417 27.8682C4.78514 28.2525 4.59978 28.6071 4.30649 28.8585L4.2471 28.9094C3.71785 29.363 2.9369 29.363 2.40766 28.9094C2.09442 28.6409 1.91415 28.249 1.91415 27.8364V25.5906C1.91415 25.0254 1.99026 24.4627 2.14043 23.9178L3.02053 20.7243C3.53507 18.8573 4.25419 17.0528 5.16482 15.3436C6.5658 12.714 8.40329 10.3416 10.5989 8.32747L10.679 8.25397C12.7293 6.37307 15.0651 4.82943 17.5993 3.68061C20.392 2.4146 23.3845 1.64666 26.4417 1.41149L27.0971 1.36108C29.1589 1.20248 31.2323 1.28941 33.2737 1.62005C36.2795 2.10691 39.177 3.11586 41.8351 4.60128L43.3159 5.4288L43.8038 4.55585L42.3229 3.72834C39.563 2.18602 36.5545 1.13842 33.4336 0.632911ZM24.6597 53.3559C26.7792 53.6992 28.9321 53.7894 31.0729 53.6248L31.7283 53.5743C34.9017 53.3302 38.008 52.5331 40.9069 51.2189C43.5374 50.0265 45.962 48.4241 48.0903 46.4717L48.1704 46.3982C50.4494 44.3075 52.3568 41.8449 53.811 39.1154C54.7563 37.3413 55.5027 35.4682 56.0368 33.5301L56.9169 30.3367C57.0909 29.7052 57.1791 29.0532 57.1791 28.3982V26.1524C57.1791 25.4479 56.8713 24.7786 56.3364 24.3201C55.4327 23.5455 54.0991 23.5455 53.1954 24.3201L53.136 24.371C52.6478 24.7895 52.3392 25.3798 52.2742 26.0195L51.8628 30.0706C51.7244 31.4334 51.3474 32.7612 50.7492 33.9934L49.82 35.9072C48.6603 38.2959 47.0994 40.4681 45.2054 42.3292L44.7331 42.7933C42.8717 44.6223 40.6686 46.0672 38.2493 47.0456C35.8798 48.0038 33.3478 48.4965 30.7919 48.4965H28.8124C25.837 48.4965 22.8898 47.9191 20.1342 46.7965C18.1112 45.9723 16.2159 44.8641 14.5055 43.5054L13.9293 43.0477C12.2073 41.6797 10.6515 40.1145 9.29394 38.3843L9.22027 38.2904H13.4401H15.5046C16.5022 38.2904 17.4262 37.7653 17.9368 36.9082L18.0547 36.7105C18.6035 35.7891 18.5062 34.6208 17.8123 33.803C17.3356 33.2412 16.636 32.9173 15.8992 32.9173H4.25478C3.27823 32.9173 2.34897 33.3378 1.70434 34.0713C1.15979 34.691 0.859467 35.4877 0.859467 36.3126V47.8208C0.859467 48.7161 1.26841 49.5624 1.96988 50.1187L2.07185 50.1996C2.52428 50.5584 3.08477 50.7537 3.66223 50.7537C4.72122 50.7537 5.67085 50.1015 6.051 49.1131L6.15513 48.8424C6.3196 48.4148 6.38331 47.955 6.34133 47.4988L5.7666 41.2533C7.17891 43.4622 8.97111 45.4044 11.0607 46.9896L11.6651 46.1929C9.61711 44.6392 7.86826 42.7266 6.50367 40.548L6.08131 39.8738C5.65607 39.1949 4.60559 39.5496 4.679 40.3473L5.34554 47.5904C5.37344 47.8936 5.33109 48.1992 5.22178 48.4834L5.11766 48.7541C4.88604 49.3563 4.30745 49.7537 3.66223 49.7537C3.31039 49.7537 2.9689 49.6347 2.69324 49.4161L2.59127 49.3352C2.12897 48.9686 1.85947 48.4109 1.85947 47.8208V36.3126C1.85947 35.7306 2.07134 35.1686 2.45551 34.7314C2.91028 34.2139 3.56585 33.9173 4.25478 33.9173H15.8992C16.3423 33.9173 16.7631 34.1121 17.0498 34.45C17.4671 34.9418 17.5257 35.6445 17.1956 36.1986L17.0777 36.3964C16.7475 36.9508 16.1498 37.2904 15.5046 37.2904H13.4401H8.86425C8.17459 37.2904 7.78805 38.085 8.21377 38.6276L8.5072 39.0016C9.91303 40.7933 11.5241 42.4141 13.3073 43.8307L13.8835 44.2884C15.6683 45.7062 17.646 46.8626 19.7569 47.7226C22.6323 48.894 25.7076 49.4965 28.8124 49.4965H30.7919C33.4763 49.4965 36.1356 48.9791 38.6242 47.9726C41.1651 46.9451 43.479 45.4276 45.4339 43.5066L45.9063 43.0425C47.8819 41.1012 49.5099 38.8356 50.7196 36.344L51.6488 34.4302C52.2982 33.0925 52.7074 31.651 52.8577 30.1716L53.2691 26.1206C53.3081 25.7362 53.4935 25.3817 53.7868 25.1303L53.8462 25.0794C54.3754 24.6257 55.1564 24.6257 55.6856 25.0794C55.9989 25.3479 56.1791 25.7398 56.1791 26.1524V28.3982C56.1791 28.9634 56.103 29.5261 55.9528 30.071L55.0727 33.2645C54.5582 35.1315 53.8391 36.936 52.9285 38.6452C51.5275 41.2747 49.69 43.6472 47.4944 45.6613L47.4143 45.7348C45.3639 47.6157 43.0281 49.1594 40.494 50.3082C37.7013 51.5742 34.7088 52.3421 31.6516 52.5773L30.9962 52.6277C28.9343 52.7863 26.8609 52.6994 24.8196 52.3687C21.8138 51.8819 18.9163 50.8729 16.2581 49.3875L14.7773 48.56L14.2895 49.4329L15.7703 50.2604C18.5303 51.8028 21.5387 52.8504 24.6597 53.3559Z" fill="white"/>
</svg>
