<svg width="37" height="55" viewBox="0 0 37 55" fill="none" xmlns="http://www.w3.org/2000/svg">
<path fill-rule="evenodd" clip-rule="evenodd" d="M22.1256 0.294819C22.9756 -0.0357454 23.9226 -0.0123953 24.7553 0.359661C25.7761 0.815795 26.5089 1.74299 26.7167 2.84164L27.0654 4.6846C27.1466 5.11362 27.1874 5.54928 27.1874 5.98591V15.9685V24.8801L27.6567 28.7225C28.4783 29.5511 29.1343 30.5296 29.5886 31.6055L30.9271 34.7759C31.0345 35.0303 30.9154 35.3236 30.661 35.431C30.4066 35.5384 30.1133 35.4192 30.0059 35.1648L28.6673 31.9945C28.242 30.9872 27.6183 30.0759 26.8334 29.3147C26.6098 29.0979 26.3107 28.9767 25.9993 28.9767H23.4653C22.7225 28.9767 21.9839 29.0878 21.2739 29.3062L20.8598 29.4336L16.8811 30.6578L16.8729 30.6604L16.8645 30.6626L15.91 30.9206C14.415 31.3247 13.3988 32.7051 13.4518 34.2477C13.5709 34.6363 13.6992 34.8861 13.8532 35.0581C14.0052 35.2279 14.2144 35.3575 14.5637 35.4426C14.8103 35.5027 15.2364 35.5301 15.7356 35.538C16.0559 35.5431 16.3748 35.5402 16.666 35.5376H16.6663H16.6666L16.6676 35.5376C16.8233 35.5362 16.9709 35.5349 17.1067 35.5349C18.351 35.5349 20.8185 35.5345 22.1465 35.4364L24.2509 34.5125C24.5038 34.4015 24.7987 34.5165 24.9097 34.7693C25.0207 35.0222 24.9058 35.3172 24.6529 35.4282L22.901 36.1973C23.1473 36.8455 23.5909 37.4002 24.1694 37.783L26.1659 38.7812C26.4129 38.9047 26.513 39.2051 26.3895 39.4521C26.266 39.6991 25.9656 39.7992 25.7187 39.6757L23.696 38.6644L23.9197 38.2172L23.6472 38.6364C22.8984 38.1497 22.32 37.4431 21.9906 36.6151L19.15 37.9678L18.1308 38.5607C17.0005 39.2184 16.1195 40.2316 15.6253 41.4424C15.4793 41.8 15.3687 42.1711 15.295 42.5503L14.9342 44.4058C14.7646 45.2779 14.6792 46.1643 14.6792 47.0528C14.6792 47.3289 14.4553 47.5528 14.1792 47.5528C13.9031 47.5528 13.6792 47.3289 13.6792 47.0528C13.6792 46.1003 13.7707 45.15 13.9525 44.215L14.3133 42.3594C14.3995 41.9162 14.5289 41.4825 14.6995 41.0645C15.2771 39.6493 16.3067 38.4651 17.6279 37.6964L18.6649 37.093L18.6828 37.0827L18.7014 37.0738L19.8673 36.5186C18.8335 36.5349 17.7897 36.5349 17.121 36.5349H17.1206H17.1067C16.9875 36.5349 16.8483 36.5361 16.6971 36.5374H16.697H16.6969C16.3974 36.5401 16.0507 36.5431 15.7197 36.5379C15.2286 36.5301 14.6967 36.5043 14.327 36.4142C13.8246 36.2918 13.4218 36.0755 13.1081 35.725C12.9946 35.5982 12.8975 35.4591 12.8131 35.3094L12.7555 35.3814C12.2261 36.0432 11.4245 36.4284 10.577 36.4284C9.70574 36.4284 8.88447 36.0213 8.35687 35.3279L7.80348 34.6006C7.51761 35.6746 6.69602 36.5247 5.63144 36.8465L5.58652 36.8601C4.97251 37.0457 4.31571 37.0339 3.70879 36.8262C2.86249 36.5367 2.18952 35.8936 1.85889 35.072L1.23824 38.607C1.07971 39.5099 1 40.4249 1 41.3416C1 43.4294 1.41343 45.4966 2.21642 47.4237L2.57099 48.2747C2.90298 49.0715 3.31771 49.8312 3.80837 50.5414C4.60635 51.6963 5.59571 52.7066 6.73377 53.5285L6.86056 53.6201C7.08443 53.7818 7.13484 54.0943 6.97316 54.3182C6.81148 54.542 6.49894 54.5924 6.27507 54.4308L6.14828 54.3392C4.91792 53.4506 3.84834 52.3584 2.98564 51.1098C2.45519 50.342 2.00682 49.5207 1.64791 48.6593L1.29334 47.8084C0.439569 45.7593 0 43.5615 0 41.3416C0 40.367 0.0847537 39.3941 0.253303 38.4341L1.22421 32.9042V27.838V26.6018C1.22421 25.3774 1.85074 24.2382 2.88471 23.5826L2.97473 23.5255C3.48852 23.1996 4.08436 23.0266 4.69274 23.0266C5.63318 23.0266 6.51907 23.4388 7.12413 24.1419C7.22438 23.4552 7.49026 22.7999 7.90274 22.2342L8.09797 21.9664C8.78282 21.0272 9.87524 20.4718 11.0376 20.4718C11.5272 20.4718 12.0117 20.5706 12.4622 20.7623L13.6792 21.2802V20.8984C13.6792 20.5043 13.7442 20.113 13.8715 19.7401C14.288 18.5205 15.3271 17.6183 16.593 17.3772L16.6547 17.3654C17.7711 17.1528 18.9233 17.4661 19.7783 18.2149L19.9201 18.3391L19.552 9.01554C19.5411 8.73961 19.756 8.5071 20.0319 8.49621C20.3078 8.48531 20.5403 8.70017 20.5512 8.9761L20.9651 19.4617L21.066 22.0166L21.0664 22.0257L21.0663 22.0257L21.1987 28.2863C21.9364 28.081 22.6989 27.9767 23.4653 27.9767H25.9993C26.1927 27.9767 26.3835 28.0022 26.5673 28.0514L26.1911 24.9711L26.1874 24.941V24.9105V15.9685V5.98591C26.1874 5.61166 26.1524 5.23822 26.0828 4.87049L25.7342 3.02753C25.5872 2.25074 25.0691 1.59518 24.3473 1.27267C23.7586 1.00961 23.089 0.993101 22.488 1.22682L22.4229 1.25216C21.5557 1.5894 20.9372 2.36733 20.804 3.28822L20.4225 5.927C20.383 6.2003 20.1294 6.38982 19.8561 6.35031C19.5828 6.3108 19.3933 6.05721 19.4328 5.78391L19.8143 3.14513C19.9991 1.86742 20.8572 0.788066 22.0605 0.320151L22.1256 0.294819ZM20.2049 28.5889L20.0666 22.0515L19.9744 19.7159L19.1195 18.9672C18.496 18.4212 17.6559 18.1927 16.8418 18.3478L16.7801 18.3595C15.8673 18.5334 15.1181 19.1839 14.8179 20.0632C14.7261 20.3321 14.6792 20.6143 14.6792 20.8984V22.0363V27.838C14.6792 28.1141 14.4553 28.338 14.1792 28.338C13.9031 28.338 13.6792 28.1141 13.6792 27.838V22.3669L12.0706 21.6824C11.744 21.5434 11.3926 21.4718 11.0376 21.4718C10.1947 21.4718 9.40259 21.8745 8.90598 22.5556L8.71075 22.8233C8.30029 23.3863 8.07912 24.065 8.07912 24.7616V25.6823V27.838V33.3114L9.1527 34.7224C9.49118 35.1672 10.0181 35.4284 10.577 35.4284C11.1207 35.4284 11.635 35.1813 11.9746 34.7567L12.4499 34.1626C12.4361 32.205 13.7436 30.4703 15.6491 29.9553L16.5953 29.6995L20.2049 28.5889ZM7.07912 33.4159V27.838V25.8337L6.52989 25.0099C6.12039 24.3956 5.43099 24.0266 4.69274 24.0266C4.274 24.0266 3.8639 24.1457 3.51028 24.37L3.42025 24.4271C2.67549 24.8993 2.22421 25.7199 2.22421 26.6018V27.838V32.8735L2.72633 34.5275C2.91897 35.1621 3.40498 35.6654 4.03247 35.8801C4.44124 36.0199 4.88359 36.0279 5.29713 35.9029L5.34205 35.8893C6.07834 35.6667 6.64577 35.077 6.83993 34.3327L7.07912 33.4159ZM31.6252 37.0395C31.8935 36.9739 32.1641 37.1382 32.2296 37.4065L32.392 38.0706C32.686 39.2736 32.7614 40.5196 32.6143 41.7492C32.3588 43.8867 31.4417 45.8908 29.9913 47.4816L28.8134 48.7735L28.7906 48.7985L28.7646 48.8202L22.5904 53.9832C22.3785 54.1603 22.0632 54.1322 21.8861 53.9204C21.7089 53.7085 21.737 53.3932 21.9489 53.216L28.0972 48.0748L29.2524 46.8078C30.5623 45.3711 31.3906 43.561 31.6214 41.6305C31.7542 40.5199 31.6862 39.3945 31.4206 38.3081L31.2582 37.6439C31.1927 37.3757 31.357 37.1051 31.6252 37.0395ZM35.6295 15.596L33.7505 2.27617C33.6182 1.33818 34.3464 0.500063 35.2937 0.500063C36.21 0.500063 36.9286 1.28682 36.8457 2.19939L35.6295 15.596ZM35.5762 20.2797C35.9878 20.2797 36.3214 19.9461 36.3214 19.5346C36.3214 19.123 35.9878 18.7894 35.5762 18.7894C35.1647 18.7894 34.8311 19.123 34.8311 19.5346C34.8311 19.9461 35.1647 20.2797 35.5762 20.2797Z" fill="white"/>
</svg>
