<svg width="" height="" viewBox="0 0 40 40" fill="none" xmlns="http://www.w3.org/2000/svg">
<rect width="40" height="40" rx="15" fill="#D61E8E"/>
<path d="M18.2471 12.8991C20.3711 11.7598 21.5674 11.3081 21.8359 11.5441C22.1696 11.8453 22.5724 14.5837 23.0444 19.7595C23.5164 24.9353 23.6019 27.6289 23.3008 27.8405C22.9508 28.0765 22.0841 28.1701 20.7007 28.1213C19.3172 28.0725 18.5156 27.9178 18.2959 27.6574C18.1982 27.5354 18.1698 26.9779 18.2104 25.9851C18.243 25.2933 18.3162 24.2354 18.4302 22.8112C18.6743 19.8083 18.7557 18.2906 18.6743 18.258C18.6173 18.2255 18.4546 18.2214 18.186 18.2458C18.0965 18.2539 17.9663 18.2661 17.7954 18.2824L17.356 18.3313C16.5666 18.4208 16.0824 18.4045 15.9033 18.2824C15.6917 18.1359 15.4761 17.5948 15.2563 16.6589C15.0448 15.7637 14.9715 15.194 15.0366 14.9499C15.0936 14.6895 16.1637 14.0059 18.2471 12.8991Z" fill="white"/>
</svg>
