<svg width="" height="" viewBox="0 0 40 40" fill="none" xmlns="http://www.w3.org/2000/svg">
<rect width="40" height="40" rx="15" fill="#D61E8E"/>
<path d="M16.3926 12.8255C17.6296 11.8815 18.4149 11.3606 18.7485 11.263C19.4403 11.0595 20.6488 11.4013 22.374 12.2884C24.026 13.1266 24.9497 13.7939 25.145 14.2903C25.2345 14.5101 25.1816 15.1692 24.9863 16.2679L24.8765 16.9026C24.8276 17.1549 24.791 17.3543 24.7666 17.5008C24.6934 17.9158 24.6608 18.1966 24.6689 18.3431C24.6689 18.4326 24.7544 18.7337 24.9253 19.2464C24.9497 19.3359 24.9904 19.458 25.0474 19.6126L25.1084 19.8079L25.1816 20.0154C25.2874 20.3491 25.381 20.638 25.4624 20.8821C25.9507 22.4528 26.1419 23.4131 26.0361 23.763C25.8652 24.3082 25.0229 25.1383 23.5093 26.2532C21.9386 27.417 20.7912 27.9988 20.0669 27.9988C19.4728 27.9988 18.305 27.4048 16.5635 26.2166C14.8626 25.0529 14.0122 24.3204 14.0122 24.0193C14.0122 23.7589 14.3255 23.348 14.9521 22.7864C15.5625 22.2412 15.9694 21.9726 16.1729 21.9808C16.2542 21.9889 16.4495 22.1028 16.7588 22.3226C16.8809 22.4039 17.0355 22.5138 17.2227 22.6522L17.7354 23.0428C18.6468 23.7264 19.1717 24.06 19.3101 24.0438C19.5542 24.0112 20.0343 23.7508 20.7505 23.2625C21.5155 22.7417 21.8776 22.3755 21.8369 22.1639C21.7881 21.936 21.5887 21.582 21.2388 21.1019C20.8888 20.6299 20.6447 20.3816 20.5063 20.3572C20.4168 20.3491 20.2337 20.3532 19.957 20.3694L19.7861 20.3816L19.5908 20.3938L19.2124 20.4183C18.5614 20.4508 18.2196 20.3979 18.187 20.2596C18.1545 20.1456 18.1219 19.991 18.0894 19.7957C18.0405 19.5434 17.9998 19.3034 17.9673 19.0755C17.8778 18.4407 17.8818 18.0582 17.9795 17.928C18.0283 17.8629 18.2155 17.7693 18.541 17.6473C18.6631 17.5984 18.8218 17.5374 19.0171 17.4642L19.542 17.2811C20.4779 16.9474 20.958 16.7236 20.9824 16.6097C21.0312 16.3899 20.84 16.0848 20.4087 15.6941C19.9937 15.3198 19.6885 15.1326 19.4932 15.1326C19.3874 15.1326 18.9032 15.3442 18.0405 15.7674C17.6255 15.979 17.3162 16.1295 17.1128 16.219C16.8035 16.3574 16.596 16.4266 16.4902 16.4266C16.2542 16.4428 15.884 16.2231 15.3794 15.7674C14.883 15.3198 14.6022 14.9536 14.5371 14.6688C14.4801 14.4246 15.0986 13.8102 16.3926 12.8255Z" fill="white"/>
</svg>
