<svg width="" height="" viewBox="0 0 40 40" fill="none" xmlns="http://www.w3.org/2000/svg">
<rect width="40" height="40" rx="15" fill="#D61E8E"/>
<path d="M14.0488 15.8674C13.8779 15.6151 14.2726 14.9234 15.2329 13.7922C16.1281 12.7342 16.7873 12.0791 17.2105 11.8269C17.5604 11.6234 18.8299 11.656 21.019 11.9245C23.2 12.1849 24.4533 12.4576 24.7788 12.7424C25.0718 12.9865 25.2061 14.0038 25.1816 15.7941C25.1572 17.495 25.0555 18.5285 24.8765 18.8947C24.8114 19.0331 24.4858 19.3708 23.8999 19.9079C23.5011 20.2823 22.8786 20.8356 22.0322 21.5681C20.25 23.1224 19.3385 23.9525 19.2979 24.0583C19.249 24.1722 20.132 24.2292 21.9468 24.2292H22.9722C23.3465 24.2373 23.6558 24.2455 23.8999 24.2536C24.5184 24.278 24.8602 24.3309 24.9253 24.4123C25.1043 24.6239 25.1979 25.2342 25.2061 26.2434C25.2142 27.3013 25.0718 27.9361 24.7788 28.1477C24.4452 28.3837 22.8338 28.4284 19.9448 28.2819C17.0233 28.1354 15.4201 27.9035 15.1353 27.5861C14.8504 27.2769 14.6348 26.3003 14.4883 24.6564C14.3418 23.0533 14.3621 22.0767 14.5493 21.7268C14.6795 21.4745 15.8107 20.6322 17.9429 19.1999C18.2358 19.0046 18.6305 18.7401 19.127 18.4064L19.4077 18.2233L19.6763 18.0402C19.8634 17.91 20.0262 17.8002 20.1646 17.7106C20.8481 17.2549 21.2184 16.9945 21.2754 16.9294C21.3893 16.791 21.0882 16.5388 20.3721 16.1726C19.6803 15.8145 19.2043 15.6354 18.9438 15.6354C18.8625 15.6354 18.5614 15.8999 18.0405 16.4289L17.7354 16.7219C17.6214 16.8358 17.5238 16.9294 17.4424 17.0026C17.2308 17.1898 17.0762 17.3037 16.9785 17.3444C16.7588 17.4421 16.2705 17.2997 15.5137 16.9172C14.765 16.5428 14.2767 16.1929 14.0488 15.8674Z" fill="white"/>
</svg>
