<svg width="57" height="56" viewBox="0 0 57 56" fill="none" xmlns="http://www.w3.org/2000/svg">
<g id="Group 1948753050">
<path id="Vector 79" d="M34.7718 7.25365L38.0627 10.5445M41.3535 13.8354L38.0627 10.5445M38.0627 10.5445L34.7718 13.8354M38.0627 10.5445L40.9219 7.68524M34.1355 1.10352H51.5785C52.9294 1.10352 54.2124 1.69599 55.0885 2.7244V2.7244C55.7991 3.55859 56.1894 4.61859 56.1894 5.71441V16.6835C56.1894 17.8483 55.6534 18.9483 54.7361 19.6662V19.6662C54.0698 20.1877 53.248 20.4711 52.4019 20.4711H46.5004C46.4867 20.4711 46.474 20.4777 46.4661 20.4888L44.0654 23.9091C43.3015 24.9974 41.708 25.0511 40.8725 24.0167L38.0185 20.4832C38.0123 20.4755 38.003 20.4711 37.9931 20.4711H33.2968C32.4383 20.4711 31.6082 20.164 30.9564 19.6053V19.6053C30.1594 18.9221 29.7006 17.9247 29.7006 16.8749V5.53837C29.7006 4.55217 30.0293 3.5941 30.6348 2.81563V2.81563C31.475 1.73536 32.7669 1.10352 34.1355 1.10352Z" stroke="white"/>
<path id="Ellipse 16" d="M29.7006 6.46099C28.3673 6.23729 26.9975 6.12085 25.6005 6.12085C19.8818 6.12085 14.6187 8.07222 10.441 11.3454C4.69342 15.8486 1 22.8537 1 30.7214C1 44.3079 12.014 55.3219 25.6005 55.3219C39.1871 55.3219 50.2011 44.3079 50.2011 30.7214C50.2011 27.1053 49.4209 23.6715 48.0197 20.5791" stroke="white"/>
<path id="Vector 80" d="M10.441 11.2996L44.8602 45.7188" stroke="white"/>
<path id="Vector 81" d="M8.55276 13.5657L42.972 47.9849" stroke="white"/>
<path id="3" d="M46.3036 15.7556C45.6512 15.7556 45.0165 15.6543 44.3993 15.4515C43.791 15.2487 43.2929 14.9754 42.905 14.6316L43.5133 13.5869C43.8219 13.8778 44.223 14.1159 44.7167 14.301C45.2104 14.4861 45.7394 14.5787 46.3036 14.5787C46.9912 14.5787 47.5246 14.4332 47.9037 14.1423C48.2916 13.8426 48.4855 13.4414 48.4855 12.9389C48.4855 12.4541 48.3004 12.0662 47.9301 11.7752C47.5687 11.4755 46.9912 11.3256 46.1978 11.3256H45.4573V10.3999L48.2078 7.01459L48.393 7.54355H43.3282V6.39307H49.4377V7.2923L46.7003 10.6644L46.0127 10.2545H46.4491C47.5687 10.2545 48.4062 10.5057 48.9616 11.0082C49.5258 11.5107 49.8079 12.1499 49.8079 12.9257C49.8079 13.4459 49.6801 13.9219 49.4245 14.3539C49.1688 14.7859 48.7809 15.1297 48.2607 15.3854C47.7494 15.6322 47.097 15.7556 46.3036 15.7556Z" fill="white"/>
</g>
</svg>
